<mxfile host="app.diagrams.net" modified="2023-10-04T07:51:08.228Z" agent="Mozilla/5.0 (Windows NT 10.0; Win64; x64) AppleWebKit/537.36 (KHTML, like Gecko) Chrome/117.0.0.0 Safari/537.36 Edg/117.0.2045.47" etag="iFsDjJvhcwck2F8n4cri" version="22.0.2" type="google">
  <diagram name="Page-1" id="TQcfY_CBRoxlFuYE8QYq">
    <mxGraphModel grid="1" page="1" gridSize="10" guides="1" tooltips="1" connect="1" arrows="1" fold="1" pageScale="1" pageWidth="1169" pageHeight="827" math="0" shadow="0">
      <root>
        <mxCell id="0" />
        <mxCell id="1" parent="0" />
        <mxCell id="M_9HP4P4lVdb5qcJKBWo-5" style="edgeStyle=orthogonalEdgeStyle;rounded=0;orthogonalLoop=1;jettySize=auto;html=1;entryX=0.447;entryY=1.061;entryDx=0;entryDy=0;entryPerimeter=0;" edge="1" parent="1" source="M_9HP4P4lVdb5qcJKBWo-1" target="M_9HP4P4lVdb5qcJKBWo-4">
          <mxGeometry relative="1" as="geometry" />
        </mxCell>
        <mxCell id="M_9HP4P4lVdb5qcJKBWo-1" value="CIF&lt;br&gt;PHASE" style="shape=note;whiteSpace=wrap;html=1;backgroundOutline=1;darkOpacity=0.05;" vertex="1" parent="1">
          <mxGeometry x="64" y="1021" width="80" height="100" as="geometry" />
        </mxCell>
        <mxCell id="M_9HP4P4lVdb5qcJKBWo-4" value="parse" style="rounded=1;whiteSpace=wrap;html=1;" vertex="1" parent="1">
          <mxGeometry x="50" y="810" width="120" height="60" as="geometry" />
        </mxCell>
        <mxCell id="M_9HP4P4lVdb5qcJKBWo-6" value="&lt;font style=&quot;font-size: 23px;&quot;&gt;LIB&lt;/font&gt;" style="text;html=1;strokeColor=none;fillColor=none;align=center;verticalAlign=middle;whiteSpace=wrap;rounded=0;" vertex="1" parent="1">
          <mxGeometry x="589" y="400" width="60" height="30" as="geometry" />
        </mxCell>
        <mxCell id="M_9HP4P4lVdb5qcJKBWo-7" value="&lt;font style=&quot;font-size: 23px;&quot;&gt;APP&lt;/font&gt;" style="text;html=1;strokeColor=none;fillColor=none;align=center;verticalAlign=middle;whiteSpace=wrap;rounded=0;" vertex="1" parent="1">
          <mxGeometry x="592" y="330" width="60" height="30" as="geometry" />
        </mxCell>
        <mxCell id="nD7RmZsHWxQijevcK5Mi-5" style="edgeStyle=orthogonalEdgeStyle;rounded=0;orthogonalLoop=1;jettySize=auto;html=1;entryX=0.5;entryY=1;entryDx=0;entryDy=0;startArrow=none;startFill=0;" edge="1" parent="1" source="48cxFBT-dxTVALB7Ce1l-1" target="M_9HP4P4lVdb5qcJKBWo-10">
          <mxGeometry relative="1" as="geometry" />
        </mxCell>
        <mxCell id="M_9HP4P4lVdb5qcJKBWo-8" value="PHASE" style="shape=cylinder3;whiteSpace=wrap;html=1;boundedLbl=1;backgroundOutline=1;size=15;" vertex="1" parent="1">
          <mxGeometry x="65" y="450" width="90" height="120" as="geometry" />
        </mxCell>
        <mxCell id="M_9HP4P4lVdb5qcJKBWo-10" value="PHASE&lt;br&gt;EDDICT" style="shape=internalStorage;whiteSpace=wrap;html=1;backgroundOutline=1;" vertex="1" parent="1">
          <mxGeometry x="50" y="160" width="120" height="100" as="geometry" />
        </mxCell>
        <mxCell id="M_9HP4P4lVdb5qcJKBWo-16" style="edgeStyle=orthogonalEdgeStyle;rounded=0;orthogonalLoop=1;jettySize=auto;html=1;entryX=0.5;entryY=1;entryDx=0;entryDy=0;entryPerimeter=0;" edge="1" parent="1" source="M_9HP4P4lVdb5qcJKBWo-4" target="M_9HP4P4lVdb5qcJKBWo-8">
          <mxGeometry relative="1" as="geometry" />
        </mxCell>
        <mxCell id="M_9HP4P4lVdb5qcJKBWo-19" value="QML" style="shape=callout;whiteSpace=wrap;html=1;perimeter=calloutPerimeter;" vertex="1" parent="1">
          <mxGeometry x="100" y="-40" width="350" height="200" as="geometry" />
        </mxCell>
        <mxCell id="nD7RmZsHWxQijevcK5Mi-19" style="edgeStyle=orthogonalEdgeStyle;rounded=0;orthogonalLoop=1;jettySize=auto;html=1;entryX=0;entryY=0.5;entryDx=0;entryDy=0;" edge="1" parent="1" source="M_9HP4P4lVdb5qcJKBWo-25" target="M_9HP4P4lVdb5qcJKBWo-35">
          <mxGeometry relative="1" as="geometry" />
        </mxCell>
        <mxCell id="M_9HP4P4lVdb5qcJKBWo-25" value="JOB" style="shape=cylinder3;whiteSpace=wrap;html=1;boundedLbl=1;backgroundOutline=1;size=15;" vertex="1" parent="1">
          <mxGeometry x="414" y="450" width="100" height="260" as="geometry" />
        </mxCell>
        <mxCell id="M_9HP4P4lVdb5qcJKBWo-27" value="CRYSPY&lt;br&gt;DICT" style="shape=internalStorage;whiteSpace=wrap;html=1;backgroundOutline=1;" vertex="1" parent="1">
          <mxGeometry x="742" y="505" width="80" height="80" as="geometry" />
        </mxCell>
        <mxCell id="M_9HP4P4lVdb5qcJKBWo-34" style="edgeStyle=orthogonalEdgeStyle;rounded=0;orthogonalLoop=1;jettySize=auto;html=1;entryX=0.5;entryY=1;entryDx=0;entryDy=0;" edge="1" parent="1" source="M_9HP4P4lVdb5qcJKBWo-30" target="M_9HP4P4lVdb5qcJKBWo-27">
          <mxGeometry relative="1" as="geometry" />
        </mxCell>
        <mxCell id="nD7RmZsHWxQijevcK5Mi-21" style="edgeStyle=orthogonalEdgeStyle;rounded=0;orthogonalLoop=1;jettySize=auto;html=1;exitX=0.5;exitY=1;exitDx=0;exitDy=0;entryX=0;entryY=1;entryDx=0;entryDy=-15;entryPerimeter=0;" edge="1" parent="1" source="M_9HP4P4lVdb5qcJKBWo-35" target="M_9HP4P4lVdb5qcJKBWo-30">
          <mxGeometry relative="1" as="geometry" />
        </mxCell>
        <mxCell id="M_9HP4P4lVdb5qcJKBWo-30" value="CRYSPY&lt;br&gt;OBJ" style="shape=cylinder3;whiteSpace=wrap;html=1;boundedLbl=1;backgroundOutline=1;size=15;" vertex="1" parent="1">
          <mxGeometry x="912" y="605" width="60" height="80" as="geometry" />
        </mxCell>
        <mxCell id="nD7RmZsHWxQijevcK5Mi-24" style="edgeStyle=orthogonalEdgeStyle;rounded=0;orthogonalLoop=1;jettySize=auto;html=1;exitX=0.875;exitY=0.5;exitDx=0;exitDy=0;exitPerimeter=0;entryX=0;entryY=0.5;entryDx=0;entryDy=0;" edge="1" parent="1" source="M_9HP4P4lVdb5qcJKBWo-32" target="M_9HP4P4lVdb5qcJKBWo-52">
          <mxGeometry relative="1" as="geometry" />
        </mxCell>
        <mxCell id="M_9HP4P4lVdb5qcJKBWo-32" value="cryspy" style="ellipse;shape=cloud;whiteSpace=wrap;html=1;" vertex="1" parent="1">
          <mxGeometry x="862" y="505" width="120" height="80" as="geometry" />
        </mxCell>
        <mxCell id="nD7RmZsHWxQijevcK5Mi-22" style="edgeStyle=orthogonalEdgeStyle;rounded=0;orthogonalLoop=1;jettySize=auto;html=1;exitX=0.5;exitY=0;exitDx=0;exitDy=0;entryX=0;entryY=0.5;entryDx=0;entryDy=0;" edge="1" parent="1" source="M_9HP4P4lVdb5qcJKBWo-35" target="M_9HP4P4lVdb5qcJKBWo-27">
          <mxGeometry relative="1" as="geometry" />
        </mxCell>
        <mxCell id="M_9HP4P4lVdb5qcJKBWo-35" value="full update&lt;br&gt;required?" style="rhombus;whiteSpace=wrap;html=1;" vertex="1" parent="1">
          <mxGeometry x="649" y="577.5" width="86" height="80" as="geometry" />
        </mxCell>
        <mxCell id="M_9HP4P4lVdb5qcJKBWo-39" value="YES" style="text;html=1;strokeColor=none;fillColor=none;align=center;verticalAlign=middle;whiteSpace=wrap;rounded=0;" vertex="1" parent="1">
          <mxGeometry x="692" y="655" width="60" height="30" as="geometry" />
        </mxCell>
        <mxCell id="M_9HP4P4lVdb5qcJKBWo-40" value="NO" style="text;html=1;strokeColor=none;fillColor=none;align=center;verticalAlign=middle;whiteSpace=wrap;rounded=0;" vertex="1" parent="1">
          <mxGeometry x="682" y="502.5" width="60" height="30" as="geometry" />
        </mxCell>
        <mxCell id="M_9HP4P4lVdb5qcJKBWo-42" value="PROFILE&lt;br&gt;DATA" style="shape=cylinder3;whiteSpace=wrap;html=1;boundedLbl=1;backgroundOutline=1;size=15;" vertex="1" parent="1">
          <mxGeometry x="1119" y="640" width="60" height="80" as="geometry" />
        </mxCell>
        <mxCell id="M_9HP4P4lVdb5qcJKBWo-46" value="" style="endArrow=none;dashed=1;html=1;rounded=0;" edge="1" parent="1">
          <mxGeometry width="50" height="50" relative="1" as="geometry">
            <mxPoint x="30" y="380" as="sourcePoint" />
            <mxPoint x="1130" y="380" as="targetPoint" />
          </mxGeometry>
        </mxCell>
        <mxCell id="M_9HP4P4lVdb5qcJKBWo-48" value="" style="rounded=1;whiteSpace=wrap;html=1;fillColor=none;dashed=1;dashPattern=1 2;" vertex="1" parent="1">
          <mxGeometry x="622" y="460" width="220" height="260" as="geometry" />
        </mxCell>
        <mxCell id="M_9HP4P4lVdb5qcJKBWo-50" value="" style="rounded=1;whiteSpace=wrap;html=1;fillColor=none;dashed=1;dashPattern=1 2;" vertex="1" parent="1">
          <mxGeometry x="862" y="462.5" width="230" height="255" as="geometry" />
        </mxCell>
        <mxCell id="M_9HP4P4lVdb5qcJKBWo-52" value="to xarray" style="rounded=1;whiteSpace=wrap;html=1;" vertex="1" parent="1">
          <mxGeometry x="1002" y="517.5" width="60" height="60" as="geometry" />
        </mxCell>
        <mxCell id="M_9HP4P4lVdb5qcJKBWo-53" value="&lt;font style=&quot;font-size: 16px;&quot;&gt;cryspy Interface&lt;/font&gt;" style="text;html=1;strokeColor=none;fillColor=none;align=center;verticalAlign=middle;whiteSpace=wrap;rounded=0;" vertex="1" parent="1">
          <mxGeometry x="672" y="716" width="110" height="40" as="geometry" />
        </mxCell>
        <mxCell id="M_9HP4P4lVdb5qcJKBWo-54" value="&lt;font style=&quot;font-size: 16px;&quot;&gt;cryspy&lt;br&gt;&amp;nbsp;Calculator&lt;/font&gt;" style="text;html=1;strokeColor=none;fillColor=none;align=center;verticalAlign=middle;whiteSpace=wrap;rounded=0;" vertex="1" parent="1">
          <mxGeometry x="892" y="722" width="120" height="30" as="geometry" />
        </mxCell>
        <mxCell id="M_9HP4P4lVdb5qcJKBWo-59" style="edgeStyle=orthogonalEdgeStyle;rounded=0;orthogonalLoop=1;jettySize=auto;html=1;entryX=0.5;entryY=1;entryDx=0;entryDy=0;" edge="1" parent="1" source="M_9HP4P4lVdb5qcJKBWo-57" target="M_9HP4P4lVdb5qcJKBWo-58">
          <mxGeometry relative="1" as="geometry" />
        </mxCell>
        <mxCell id="M_9HP4P4lVdb5qcJKBWo-57" value="CIF&lt;br&gt;EXPERIMENT" style="shape=note;whiteSpace=wrap;html=1;backgroundOutline=1;darkOpacity=0.05;" vertex="1" parent="1">
          <mxGeometry x="265" y="1019" width="80" height="100" as="geometry" />
        </mxCell>
        <mxCell id="M_9HP4P4lVdb5qcJKBWo-61" style="edgeStyle=orthogonalEdgeStyle;rounded=0;orthogonalLoop=1;jettySize=auto;html=1;" edge="1" parent="1" source="M_9HP4P4lVdb5qcJKBWo-58" target="M_9HP4P4lVdb5qcJKBWo-60">
          <mxGeometry relative="1" as="geometry" />
        </mxCell>
        <mxCell id="M_9HP4P4lVdb5qcJKBWo-63" value="" style="edgeStyle=orthogonalEdgeStyle;rounded=0;orthogonalLoop=1;jettySize=auto;html=1;" edge="1" parent="1" source="M_9HP4P4lVdb5qcJKBWo-58" target="M_9HP4P4lVdb5qcJKBWo-60">
          <mxGeometry relative="1" as="geometry" />
        </mxCell>
        <mxCell id="M_9HP4P4lVdb5qcJKBWo-58" value="parse" style="rounded=1;whiteSpace=wrap;html=1;" vertex="1" parent="1">
          <mxGeometry x="245" y="810" width="120" height="60" as="geometry" />
        </mxCell>
        <mxCell id="nD7RmZsHWxQijevcK5Mi-6" style="edgeStyle=orthogonalEdgeStyle;rounded=0;orthogonalLoop=1;jettySize=auto;html=1;entryX=0.5;entryY=1;entryDx=0;entryDy=0;startArrow=none;startFill=0;" edge="1" parent="1" source="48cxFBT-dxTVALB7Ce1l-3" target="M_9HP4P4lVdb5qcJKBWo-66">
          <mxGeometry relative="1" as="geometry" />
        </mxCell>
        <mxCell id="nD7RmZsHWxQijevcK5Mi-27" style="edgeStyle=orthogonalEdgeStyle;rounded=0;orthogonalLoop=1;jettySize=auto;html=1;" edge="1" parent="1" source="M_9HP4P4lVdb5qcJKBWo-60" target="M_9HP4P4lVdb5qcJKBWo-25">
          <mxGeometry relative="1" as="geometry" />
        </mxCell>
        <mxCell id="M_9HP4P4lVdb5qcJKBWo-60" value="EXP" style="shape=cylinder3;whiteSpace=wrap;html=1;boundedLbl=1;backgroundOutline=1;size=15;" vertex="1" parent="1">
          <mxGeometry x="261.5" y="450" width="87.5" height="130" as="geometry" />
        </mxCell>
        <mxCell id="M_9HP4P4lVdb5qcJKBWo-66" value="EXP&lt;br&gt;EDDICT&lt;br&gt;(NO DATA)" style="shape=internalStorage;whiteSpace=wrap;html=1;backgroundOutline=1;" vertex="1" parent="1">
          <mxGeometry x="299" y="160" width="110" height="100" as="geometry" />
        </mxCell>
        <mxCell id="M_9HP4P4lVdb5qcJKBWo-69" value="CRYSFML&lt;br&gt;DICT" style="shape=internalStorage;whiteSpace=wrap;html=1;backgroundOutline=1;" vertex="1" parent="1">
          <mxGeometry x="652" y="852" width="80" height="80" as="geometry" />
        </mxCell>
        <mxCell id="M_9HP4P4lVdb5qcJKBWo-81" style="edgeStyle=orthogonalEdgeStyle;rounded=0;orthogonalLoop=1;jettySize=auto;html=1;entryX=0;entryY=0.5;entryDx=0;entryDy=0;" edge="1" parent="1" source="M_9HP4P4lVdb5qcJKBWo-71" target="M_9HP4P4lVdb5qcJKBWo-80">
          <mxGeometry relative="1" as="geometry" />
        </mxCell>
        <mxCell id="M_9HP4P4lVdb5qcJKBWo-71" value="crysfml" style="ellipse;shape=cloud;whiteSpace=wrap;html=1;" vertex="1" parent="1">
          <mxGeometry x="872" y="872" width="120" height="80" as="geometry" />
        </mxCell>
        <mxCell id="M_9HP4P4lVdb5qcJKBWo-73" style="edgeStyle=orthogonalEdgeStyle;rounded=0;orthogonalLoop=1;jettySize=auto;html=1;entryX=0.07;entryY=0.5;entryDx=0;entryDy=0;entryPerimeter=0;" edge="1" parent="1" source="M_9HP4P4lVdb5qcJKBWo-69" target="M_9HP4P4lVdb5qcJKBWo-71">
          <mxGeometry relative="1" as="geometry" />
        </mxCell>
        <mxCell id="M_9HP4P4lVdb5qcJKBWo-74" value="&lt;font style=&quot;font-size: 16px;&quot;&gt;crysfml&lt;br&gt;&amp;nbsp;Interface&lt;/font&gt;" style="text;html=1;strokeColor=none;fillColor=none;align=center;verticalAlign=middle;whiteSpace=wrap;rounded=0;" vertex="1" parent="1">
          <mxGeometry x="620" y="962" width="110" height="40" as="geometry" />
        </mxCell>
        <mxCell id="M_9HP4P4lVdb5qcJKBWo-75" value="&lt;font style=&quot;font-size: 16px;&quot;&gt;crysfml&lt;br&gt;&amp;nbsp;Calculator&lt;/font&gt;" style="text;html=1;strokeColor=none;fillColor=none;align=center;verticalAlign=middle;whiteSpace=wrap;rounded=0;" vertex="1" parent="1">
          <mxGeometry x="872" y="967" width="120" height="30" as="geometry" />
        </mxCell>
        <mxCell id="M_9HP4P4lVdb5qcJKBWo-76" value="" style="rounded=1;whiteSpace=wrap;html=1;fillColor=none;dashed=1;dashPattern=1 2;" vertex="1" parent="1">
          <mxGeometry x="622" y="774.75" width="215" height="175" as="geometry" />
        </mxCell>
        <mxCell id="M_9HP4P4lVdb5qcJKBWo-79" style="edgeStyle=orthogonalEdgeStyle;rounded=0;orthogonalLoop=1;jettySize=auto;html=1;entryX=0;entryY=0.5;entryDx=0;entryDy=0;entryPerimeter=0;" edge="1" parent="1" source="M_9HP4P4lVdb5qcJKBWo-52" target="M_9HP4P4lVdb5qcJKBWo-42">
          <mxGeometry relative="1" as="geometry" />
        </mxCell>
        <mxCell id="M_9HP4P4lVdb5qcJKBWo-80" value="to xarray" style="rounded=1;whiteSpace=wrap;html=1;" vertex="1" parent="1">
          <mxGeometry x="1022" y="862" width="60" height="60" as="geometry" />
        </mxCell>
        <mxCell id="M_9HP4P4lVdb5qcJKBWo-77" value="" style="rounded=1;whiteSpace=wrap;html=1;fillColor=none;dashed=1;dashPattern=1 2;" vertex="1" parent="1">
          <mxGeometry x="842" y="767.5" width="250" height="184.5" as="geometry" />
        </mxCell>
        <mxCell id="M_9HP4P4lVdb5qcJKBWo-83" style="edgeStyle=orthogonalEdgeStyle;rounded=0;orthogonalLoop=1;jettySize=auto;html=1;entryX=0.5;entryY=1;entryDx=0;entryDy=0;entryPerimeter=0;" edge="1" parent="1" source="M_9HP4P4lVdb5qcJKBWo-80" target="M_9HP4P4lVdb5qcJKBWo-42">
          <mxGeometry relative="1" as="geometry" />
        </mxCell>
        <mxCell id="M_9HP4P4lVdb5qcJKBWo-84" value="" style="endArrow=none;dashed=1;html=1;rounded=0;" edge="1" parent="1">
          <mxGeometry width="50" height="50" relative="1" as="geometry">
            <mxPoint x="30" y="1010" as="sourcePoint" />
            <mxPoint x="1140" y="1010" as="targetPoint" />
          </mxGeometry>
        </mxCell>
        <mxCell id="nD7RmZsHWxQijevcK5Mi-1" value="&lt;p style=&quot;line-height: 70%;&quot;&gt;CRYSFML&lt;br&gt;&lt;/p&gt;&lt;p style=&quot;line-height: 70%;&quot;&gt;OBJ&lt;/p&gt;" style="shape=cylinder3;whiteSpace=wrap;html=1;boundedLbl=1;backgroundOutline=1;size=15;dashed=1;dashPattern=1 1;" vertex="1" parent="1">
          <mxGeometry x="892" y="800" width="80" height="72" as="geometry" />
        </mxCell>
        <mxCell id="nD7RmZsHWxQijevcK5Mi-2" style="edgeStyle=orthogonalEdgeStyle;rounded=0;orthogonalLoop=1;jettySize=auto;html=1;entryX=0;entryY=0.5;entryDx=0;entryDy=0;entryPerimeter=0;dashed=1;dashPattern=1 1;" edge="1" parent="1" source="M_9HP4P4lVdb5qcJKBWo-69" target="nD7RmZsHWxQijevcK5Mi-1">
          <mxGeometry relative="1" as="geometry">
            <Array as="points">
              <mxPoint x="822" y="852" />
              <mxPoint x="822" y="820" />
            </Array>
          </mxGeometry>
        </mxCell>
        <mxCell id="nD7RmZsHWxQijevcK5Mi-3" style="edgeStyle=orthogonalEdgeStyle;rounded=0;orthogonalLoop=1;jettySize=auto;html=1;entryX=0.897;entryY=0.35;entryDx=0;entryDy=0;entryPerimeter=0;dashed=1;dashPattern=1 1;" edge="1" parent="1" source="nD7RmZsHWxQijevcK5Mi-1" target="M_9HP4P4lVdb5qcJKBWo-71">
          <mxGeometry relative="1" as="geometry">
            <Array as="points">
              <mxPoint x="980" y="822" />
            </Array>
          </mxGeometry>
        </mxCell>
        <mxCell id="nD7RmZsHWxQijevcK5Mi-7" style="edgeStyle=orthogonalEdgeStyle;rounded=0;orthogonalLoop=1;jettySize=auto;html=1;entryX=0.031;entryY=0.848;entryDx=0;entryDy=0;entryPerimeter=0;" edge="1" parent="1" source="M_9HP4P4lVdb5qcJKBWo-10" target="M_9HP4P4lVdb5qcJKBWo-19">
          <mxGeometry relative="1" as="geometry" />
        </mxCell>
        <mxCell id="nD7RmZsHWxQijevcK5Mi-8" style="edgeStyle=orthogonalEdgeStyle;rounded=0;orthogonalLoop=1;jettySize=auto;html=1;entryX=0.858;entryY=0.865;entryDx=0;entryDy=0;entryPerimeter=0;" edge="1" parent="1" source="M_9HP4P4lVdb5qcJKBWo-66" target="M_9HP4P4lVdb5qcJKBWo-19">
          <mxGeometry relative="1" as="geometry" />
        </mxCell>
        <mxCell id="nD7RmZsHWxQijevcK5Mi-9" style="edgeStyle=orthogonalEdgeStyle;rounded=0;orthogonalLoop=1;jettySize=auto;html=1;entryX=1;entryY=0.373;entryDx=0;entryDy=0;entryPerimeter=0;exitX=0.5;exitY=0;exitDx=0;exitDy=0;exitPerimeter=0;" edge="1" parent="1" source="M_9HP4P4lVdb5qcJKBWo-42" target="M_9HP4P4lVdb5qcJKBWo-19">
          <mxGeometry relative="1" as="geometry">
            <Array as="points">
              <mxPoint x="1150" y="640" />
              <mxPoint x="1150" y="190" />
              <mxPoint x="755" y="190" />
              <mxPoint x="755" y="35" />
            </Array>
          </mxGeometry>
        </mxCell>
        <mxCell id="nD7RmZsHWxQijevcK5Mi-10" style="edgeStyle=orthogonalEdgeStyle;rounded=0;orthogonalLoop=1;jettySize=auto;html=1;entryX=0.855;entryY=0;entryDx=0;entryDy=4.35;entryPerimeter=0;strokeColor=#3333FF;" edge="1" parent="1">
          <mxGeometry relative="1" as="geometry">
            <mxPoint x="218" y="130" as="sourcePoint" />
            <mxPoint x="129.95000000000005" y="454.3499999999999" as="targetPoint" />
            <Array as="points">
              <mxPoint x="218" y="370" />
              <mxPoint x="130" y="370" />
            </Array>
          </mxGeometry>
        </mxCell>
        <mxCell id="nD7RmZsHWxQijevcK5Mi-12" style="edgeStyle=orthogonalEdgeStyle;rounded=0;orthogonalLoop=1;jettySize=auto;html=1;entryX=0.5;entryY=0;entryDx=0;entryDy=0;entryPerimeter=0;strokeColor=#3633ff;" edge="1" parent="1" source="M_9HP4P4lVdb5qcJKBWo-19" target="M_9HP4P4lVdb5qcJKBWo-25">
          <mxGeometry relative="1" as="geometry">
            <Array as="points">
              <mxPoint x="464" y="60" />
            </Array>
          </mxGeometry>
        </mxCell>
        <mxCell id="nD7RmZsHWxQijevcK5Mi-17" style="edgeStyle=orthogonalEdgeStyle;rounded=0;orthogonalLoop=1;jettySize=auto;html=1;entryX=0.16;entryY=0.55;entryDx=0;entryDy=0;entryPerimeter=0;" edge="1" parent="1" source="M_9HP4P4lVdb5qcJKBWo-27" target="M_9HP4P4lVdb5qcJKBWo-32">
          <mxGeometry relative="1" as="geometry" />
        </mxCell>
        <mxCell id="nD7RmZsHWxQijevcK5Mi-20" style="edgeStyle=orthogonalEdgeStyle;rounded=0;orthogonalLoop=1;jettySize=auto;html=1;entryX=-0.005;entryY=0.601;entryDx=0;entryDy=0;entryPerimeter=0;" edge="1" parent="1" source="M_9HP4P4lVdb5qcJKBWo-25" target="M_9HP4P4lVdb5qcJKBWo-69">
          <mxGeometry relative="1" as="geometry">
            <Array as="points">
              <mxPoint x="464" y="750" />
              <mxPoint x="557" y="750" />
              <mxPoint x="557" y="900" />
            </Array>
          </mxGeometry>
        </mxCell>
        <mxCell id="nD7RmZsHWxQijevcK5Mi-28" style="edgeStyle=orthogonalEdgeStyle;rounded=0;orthogonalLoop=1;jettySize=auto;html=1;entryX=0;entryY=0;entryDx=0;entryDy=187.5;entryPerimeter=0;" edge="1" parent="1" source="M_9HP4P4lVdb5qcJKBWo-8" target="M_9HP4P4lVdb5qcJKBWo-25">
          <mxGeometry relative="1" as="geometry">
            <Array as="points">
              <mxPoint x="230" y="510" />
              <mxPoint x="230" y="638" />
            </Array>
          </mxGeometry>
        </mxCell>
        <mxCell id="48cxFBT-dxTVALB7Ce1l-2" value="" style="edgeStyle=orthogonalEdgeStyle;rounded=0;orthogonalLoop=1;jettySize=auto;html=1;entryX=0.5;entryY=1;entryDx=0;entryDy=0;startArrow=none;startFill=0;" edge="1" parent="1" source="M_9HP4P4lVdb5qcJKBWo-8" target="48cxFBT-dxTVALB7Ce1l-1">
          <mxGeometry relative="1" as="geometry">
            <mxPoint x="110" y="450" as="sourcePoint" />
            <mxPoint x="110" y="260" as="targetPoint" />
          </mxGeometry>
        </mxCell>
        <mxCell id="48cxFBT-dxTVALB7Ce1l-1" value="phase to dict" style="rounded=1;whiteSpace=wrap;html=1;" vertex="1" parent="1">
          <mxGeometry x="50" y="285" width="120" height="60" as="geometry" />
        </mxCell>
        <mxCell id="48cxFBT-dxTVALB7Ce1l-4" value="" style="edgeStyle=orthogonalEdgeStyle;rounded=0;orthogonalLoop=1;jettySize=auto;html=1;entryX=0.5;entryY=1;entryDx=0;entryDy=0;startArrow=none;startFill=0;" edge="1" parent="1" source="M_9HP4P4lVdb5qcJKBWo-60" target="48cxFBT-dxTVALB7Ce1l-3">
          <mxGeometry relative="1" as="geometry">
            <mxPoint x="305" y="450" as="sourcePoint" />
            <mxPoint x="365" y="260" as="targetPoint" />
          </mxGeometry>
        </mxCell>
        <mxCell id="48cxFBT-dxTVALB7Ce1l-3" value="converter" style="rounded=1;whiteSpace=wrap;html=1;" vertex="1" parent="1">
          <mxGeometry x="294" y="285" width="120" height="60" as="geometry" />
        </mxCell>
      </root>
    </mxGraphModel>
  </diagram>
</mxfile>
